nColumns=19
nRows=98
DataType=double
version=3
OpenSimVersion=4.1
endheader
time	ground_force_calcn_r_vx	ground_force_calcn_r_vy	ground_force_calcn_r_vz	ground_force_calcn_r_px	ground_force_calcn_r_py	ground_force_calcn_r_pz	ground_force_calcn_r_mx	ground_force_calcn_r_my	ground_force_calcn_r_mz	ground_force_calcn_l_vx	ground_force_calcn_l_vy	ground_force_calcn_l_vz	ground_force_calcn_l_px	ground_force_calcn_l_py	ground_force_calcn_l_pz	ground_force_calcn_l_mx	ground_force_calcn_l_my	ground_force_calcn_l_mz
3.55	-334.743	1952.26	-69.2533	0.788612	0	-0.234229	-0.289089	1.686	-0.0598081	0	0	0	0	0	0	0	0	0
3.56	-287.705	2099.9	-93.762	0.749715	0	-0.235223	-0.47765	3.48627	-0.155664	0	0	0	0	0	0	0	0	0
3.57	-202.835	2212.22	-120.213	0.709769	0	-0.234445	-0.574918	6.27037	-0.340734	0	0	0	0	0	0	0	0	0
3.58	-105.182	2252.42	-134.607	0.669796	0	-0.232644	-0.432142	9.25403	-0.553034	0	0	0	0	0	0	0	0	0
3.59	9.01322	2202.32	-137.556	0.626999	0	-0.231562	0.0472846	11.5537	-0.72164	0	0	0	0	0	0	0	0	0
3.6	130.003	2065.66	-130.348	0.581945	0	-0.231235	0.786436	12.4959	-0.788519	0	0	0	0	0	0	0	0	0
3.61	230.903	1855.18	-111.993	0.5388	0	-0.230724	1.47492	11.8502	-0.715371	0	0	0	0	0	0	0	0	0
3.62	297.836	1570	-87.54	0.498419	0	-0.229994	1.87018	9.85837	-0.549682	0	0	0	0	0	0	0	0	0
3.63	322.972	1214.01	-64.7185	0.456338	0	-0.229487	1.87659	7.05386	-0.376039	0	0	0	0	0	0	0	0	0
3.64	299.223	828.169	-45.9565	0.406159	0	-0.228831	1.47179	4.07351	-0.226046	0	0	0	0	0	0	0	0	0
3.65	224.809	488.393	-29.6188	0.358477	0	-0.227642	0.708774	1.5398	-0.0933818	0	0	0	0	0	0	0	0	0
3.66	122.302	248.921	-14.8336	0.359033	0	-0.225354	-0.108818	-0.221477	0.0131982	0	0	0	0	0	0	0	0	0
3.67	42.7511	105.873	-3.56989	0.434787	0	-0.217324	-0.546113	-1.35245	0.0456027	0	0	0	0	0	0	0	0	0
3.68	8.92081	35.2283	1.46329	0.554298	0	-0.194993	-0.470625	-1.8585	-0.0771973	0	0	0	0	0	0	0	0	0
3.69	0	0	0	0	0	0	0	0	0	0	0	0	0	0	0	0	0	0
3.7	0	0	0	0	0	0	0	0	0	0	0	0	0	0	0	0	0	0
3.71	0	0	0	0	0	0	0	0	0	0	0	0	0	0	0	0	0	0
3.72	0	0	0	0	0	0	0	0	0	0	0	0	0	0	0	0	0	0
3.73	0	0	0	0	0	0	0	0	0	0	0	0	0	0	0	0	0	0
3.74	0	0	0	0	0	0	0	0	0	0	0	0	0	0	0	0	0	0
3.75	0	0	0	0	0	0	0	0	0	0	0	0	0	0	0	0	0	0
3.76	0	0	0	0	0	0	0	0	0	0	0	0	0	0	0	0	0	0
3.77	0	0	0	0	0	0	0	0	0	0	0	0	0	0	0	0	0	0
3.78	0	0	0	0	0	0	0	0	0	0	0	0	0	0	0	0	0	0
3.79	0	0	0	0	0	0	0	0	0	-11.1282	15.881	-2.58169	0.967409	0	-0.52956	-1.91484	2.73267	-0.444234
3.8	0	0	0	0	0	0	0	0	0	-31.8729	70.956	-0.78286	0.88687	0	-0.473314	-1.10698	2.46439	-0.0271897
3.81	0	0	0	0	0	0	0	0	0	-87.9548	248.376	11.682	0.877209	0	-0.453918	-0.179142	0.505881	0.0237933
3.82	0	0	0	0	0	0	0	0	0	-161.565	601.067	40.8875	0.87359	0	-0.437876	0.597357	-2.22234	-0.151174
3.83	0	0	0	0	0	0	0	0	0	-195.009	1039.27	74.3256	0.855782	0	-0.422714	0.891193	-4.74945	-0.339668
3.84	0	0	0	0	0	0	0	0	0	-197.727	1406.7	81.7418	0.824339	0	-0.413646	0.874596	-6.2222	-0.361565
3.85	0	0	0	0	0	0	0	0	0	-213.092	1636.37	56.8295	0.788335	0	-0.413683	0.874647	-6.71656	-0.23326
3.86	0	0	0	0	0	0	0	0	0	-230.324	1800.84	38.6569	0.752817	0	-0.416583	0.918174	-7.17895	-0.154104
3.87	0	0	0	0	0	0	0	0	0	-217.431	1980.91	60.1053	0.717783	0	-0.415943	0.931889	-8.48999	-0.257606
3.88	0	0	0	0	0	0	0	0	0	-154.789	2138.77	100.117	0.680371	0	-0.414993	0.770023	-10.6396	-0.498045
3.89	0	0	0	0	0	0	0	0	0	-54.4803	2202.01	119.025	0.638384	0	-0.417947	0.315853	-12.7663	-0.690054
3.9	0	0	0	0	0	0	0	0	0	60.704	2162.87	114.237	0.59317	0	-0.42209	-0.387041	-13.7902	-0.728362
3.91	0	0	0	0	0	0	0	0	0	169.318	2043.24	106.806	0.549473	0	-0.422924	-1.07237	-12.9408	-0.676453
3.92	0	0	0	0	0	0	0	0	0	261.873	1844.94	97.8208	0.508498	0	-0.420656	-1.41971	-10.0021	-0.530321
3.93	0	0	0	0	0	0	0	0	0	329.404	1562.58	73.8305	0.467169	0	-0.418889	-1.1444	-5.42865	-0.256499
3.94	0	0	0	0	0	0	0	0	0	353.018	1211.82	38.5604	0.423278	0	-0.419065	-0.105674	-0.36275	-0.0115428
3.95	0	0	0	0	0	0	0	0	0	325.403	840.066	10.1578	0.376668	0	-0.418777	1.45409	3.75391	0.0453909
3.96	0	0	0	0	0	0	0	0	0	255.833	510.148	-3.91036	0.331768	0	-0.414508	2.95072	5.88393	-0.0451013
3.97	0	0	0	0	0	0	0	0	0	160.277	267.479	-10.1898	0.314452	0	-0.405086	3.65712	6.1032	-0.232506
3.98	0	0	0	0	0	0	0	0	0	74.3674	115.284	-12.9222	0.335165	0	-0.394501	3.33284	5.16653	-0.579119
3.99	0	0	0	0	0	0	0	0	0	26.5043	38.8328	-10.3216	0.347636	0	-0.367503	2.35508	3.45054	-0.917141
4	0	0	0	0	0	0	0	0	0	6.74894	17.5321	-3.9263	0.65895	0	-0.242439	0.937562	2.43556	-0.54544
4.01	0	0	0	0	0	0	0	0	0	-2.23753	10.2084	0.438078	1.07191	0	-0.147504	-0.196055	0.894472	0.038385
4.02	0	0	0	0	0	0	0	0	0	0	0	0	0	0	0	0	0	0
4.03	0	0	0	0	0	0	0	0	0	0	0	0	0	0	0	0	0	0
4.04	0	0	0	0	0	0	0	0	0	0	0	0	0	0	0	0	0	0
4.05	0	0	0	0	0	0	0	0	0	0	0	0	0	0	0	0	0	0
4.06	0	0	0	0	0	0	0	0	0	0	0	0	0	0	0	0	0	0
4.07	0	0	0	0	0	0	0	0	0	0	0	0	0	0	0	0	0	0
4.08	0	0	0	0	0	0	0	0	0	0	0	0	0	0	0	0	0	0
4.09	-7.8583	22.361	-6.39309	0.877552	0	-0.237097	-0.780499	2.22093	-0.634971	0	0	0	0	0	0	0	0	0
4.1	-32.1941	91.99	-16.0099	0.915589	0	-0.260557	-1.13072	3.23087	-0.562299	0	0	0	0	0	0	0	0	0
4.11	-87.9983	308.451	-29.232	0.922133	0	-0.262209	-1.13949	3.99412	-0.378524	0	0	0	0	0	0	0	0	0
4.12	-160.937	721.126	-37.961	0.916931	0	-0.264972	-0.898242	4.02483	-0.211872	0	0	0	0	0	0	0	0	0
4.13	-202.064	1179.25	-32.4589	0.896235	0	-0.270438	-0.563416	3.2881	-0.0905051	0	0	0	0	0	0	0	0	0
4.14	-233.852	1490.5	-13.6055	0.868002	0	-0.275346	-0.357958	2.28151	-0.0208259	0	0	0	0	0	0	0	0	0
4.15	-292.857	1664.58	0.449213	0.840011	0	-0.277756	-0.331202	1.88252	0.00050803	0	0	0	0	0	0	0	0	0
4.16	-310.334	1825.68	-7.73849	0.806539	0	-0.279328	-0.475253	2.79589	-0.0118509	0	0	0	0	0	0	0	0	0
4.17	-254.882	2022.54	-32.0056	0.767638	0	-0.279882	-0.64765	5.13921	-0.0813254	0	0	0	0	0	0	0	0	0
4.18	-178.06	2192.71	-54.0456	0.7316	0	-0.277816	-0.678545	8.35589	-0.205955	0	0	0	0	0	0	0	0	0
4.19	-107.002	2268.7	-69.9064	0.697849	0	-0.274841	-0.543964	11.5333	-0.355381	0	0	0	0	0	0	0	0	0
4.2	-33.317	2243.56	-83.0485	0.661848	0	-0.273088	-0.20491	13.7986	-0.510775	0	0	0	0	0	0	0	0	0
4.21	43.4394	2141.76	-86.4399	0.623744	0	-0.271675	0.295482	14.5686	-0.587978	0	0	0	0	0	0	0	0	0
4.22	129.82	1975.98	-74.94	0.583205	0	-0.269621	0.901886	13.7275	-0.520622	0	0	0	0	0	0	0	0	0
4.23	228.813	1742.06	-58.2375	0.538467	0	-0.26809	1.5233	11.5976	-0.38771	0	0	0	0	0	0	0	0	0
4.24	304.22	1447.02	-45.6212	0.491483	0	-0.267893	1.8506	8.80239	-0.277518	0	0	0	0	0	0	0	0	0
4.25	325.418	1113.19	-34.7239	0.444872	0	-0.2676	1.75453	6.00191	-0.187218	0	0	0	0	0	0	0	0	0
4.26	292.154	772.324	-22.5715	0.401478	0	-0.265389	1.37525	3.63554	-0.10625	0	0	0	0	0	0	0	0	0
4.27	214.742	469.428	-12.3379	0.368954	0	-0.261804	0.885348	1.93538	-0.0508673	0	0	0	0	0	0	0	0	0
4.28	122.622	243.397	-5.86532	0.360455	0	-0.257758	0.460094	0.913257	-0.0220074	0	0	0	0	0	0	0	0	0
4.29	52.073	103.085	-1.04642	0.378675	0	-0.248821	0.206013	0.407828	-0.00413988	0	0	0	0	0	0	0	0	0
4.3	16.4301	36.5808	2.52035	0.46344	0	-0.21898	0.106769	0.237715	0.0163781	0	0	0	0	0	0	0	0	0
4.31	4.56759	12.8129	3.1827	0.658224	0	-0.165313	0.0800351	0.224513	0.0557685	0	0	0	0	0	0	0	0	0
4.32	0	0	0	0	0	0	0	0	0	0	0	0	0	0	0	0	0	0
4.33	0	0	0	0	0	0	0	0	0	0	0	0	0	0	0	0	0	0
4.34	0	0	0	0	0	0	0	0	0	0	0	0	0	0	0	0	0	0
4.35	0	0	0	0	0	0	0	0	0	0	0	0	0	0	0	0	0	0
4.36	0	0	0	0	0	0	0	0	0	0	0	0	0	0	0	0	0	0
4.37	0	0	0	0	0	0	0	0	0	0	0	0	0	0	0	0	0	0
4.38	0	0	0	0	0	0	0	0	0	0	0	0	0	0	0	0	0	0
4.39	0	0	0	0	0	0	0	0	0	0	0	0	0	0	0	0	0	0
4.4	0	0	0	0	0	0	0	0	0	0	0	0	0	0	0	0	0	0
4.41	0	0	0	0	0	0	0	0	0	-12.5979	19.1177	-1.23998	0.980913	0	-0.598178	-3.37669	5.12422	-0.332357
4.42	0	0	0	0	0	0	0	0	0	-38.3541	90.2637	4.81732	0.913332	0	-0.457422	-1.25516	2.95394	0.15765
4.43	0	0	0	0	0	0	0	0	0	-113.137	316.299	27.3147	0.920868	0	-0.432851	0.90783	-2.53803	-0.219177
4.44	0	0	0	0	0	0	0	0	0	-223.553	759.673	72.8349	0.920387	0	-0.41916	2.74619	-9.33205	-0.894724
4.45	0	0	0	0	0	0	0	0	0	-301.627	1291.9	120.342	0.906103	0	-0.407075	3.56633	-15.2749	-1.42288
4.46	0	0	0	0	0	0	0	0	0	-337.042	1707.79	124.38	0.879733	0	-0.399727	3.5896	-18.1885	-1.32468
4.47	0	0	0	0	0	0	0	0	0	-349.511	1941.42	73.1851	0.847122	0	-0.398978	3.14769	-17.4844	-0.659103
4.48	0	0	0	0	0	0	0	0	0	-330.217	2082.38	16.4635	0.811339	0	-0.398851	2.28391	-14.4025	-0.113868
4.49	0	0	0	0	0	0	0	0	0	-283.617	2215.76	-0.72601	0.775144	0	-0.394874	1.38384	-10.8112	0.00354238
4.5	0	0	0	0	0	0	0	0	0	-207.652	2311.94	7.49735	0.738499	0	-0.391556	0.718464	-7.99919	-0.0259404
4.51	0	0	0	0	0	0	0	0	0	-111.925	2308.54	8.83679	0.700092	0	-0.392427	0.302698	-6.2434	-0.0238989
4.52	0	0	0	0	0	0	0	0	0	-14.1426	2196.57	4.11987	0.659942	0	-0.394328	0.0328483	-5.10185	-0.009569
